{
  "accessors": [
    {
      "bufferView": 2,
      "componentType": 5126,
      "count": 53400,
      "max": [
        1.7246899604797363,
        3.2791900634765625,
        4.458559989929199
      ],
      "min": [
        -1.7246899604797363,
        -1.7368700504302979,
        0.0014799999771639705
      ],
      "type": "VEC3"
    },
    {
      "bufferView": 2,
      "byteOffset": 640800,
      "componentType": 5126,
      "count": 53400,
      "max": [
        0.9999845623970032,
        0.9998902678489685,
        0.9999309778213501
      ],
      "min": [
        -0.9999913573265076,
        -0.9999861121177673,
        -0.9999983906745911
      ],
      "type": "VEC3"
    },
    {
      "bufferView": 1,
      "componentType": 5126,
      "count": 53400,
      "max": [
        0.99822998046875,
        0.9996600151062012
      ],
      "min": [
        0.00033999999868683517,
        0.00033999999868683517
      ],
      "type": "VEC2"
    },
    {
      "bufferView": 0,
      "componentType": 5125,
      "count": 306576,
      "type": "SCALAR"
    }
  ],
  "asset": {
    "extras": {
      "author": "Katerina Novakova (https://sketchfab.com/KaterinaNovakova)",
      "license": "CC-BY-SA-4.0 (http://creativecommons.org/licenses/by-sa/4.0/)",
      "source": "https://sketchfab.com/3d-models/pokemon-charmander-1f18443b6a7a41b38a9be521731040a6",
      "title": "Pokemon - Charmander"
    },
    "generator": "Sketchfab-12.68.0",
    "version": "2.0"
  },
  "bufferViews": [
    {
      "buffer": 0,
      "byteLength": 1226304,
      "name": "floatBufferViews",
      "target": 34963
    },
    {
      "buffer": 0,
      "byteLength": 427200,
      "byteOffset": 1226304,
      "byteStride": 8,
      "name": "floatBufferViews",
      "target": 34962
    },
    {
      "buffer": 0,
      "byteLength": 1281600,
      "byteOffset": 1653504,
      "byteStride": 12,
      "name": "floatBufferViews",
      "target": 34962
    }
  ],
  "buffers": [
    {
      "byteLength": 2935104,
      "uri": "scene.bin"
    }
  ],
  "images": [
    {
      "uri": "textures/body_baseColor.png"
    }
  ],
  "materials": [
    {
      "doubleSided": true,
      "name": "body",
      "pbrMetallicRoughness": {
        "baseColorTexture": {
          "index": 0
        },
        "metallicFactor": 0.0,
        "roughnessFactor": 0.6
      }
    }
  ],
  "meshes": [
    {
      "name": "Charmander_0",
      "primitives": [
        {
          "attributes": {
            "NORMAL": 1,
            "POSITION": 0,
            "TEXCOORD_0": 2
          },
          "indices": 3,
          "material": 0,
          "mode": 4
        }
      ]
    }
  ],
  "nodes": [
    {
      "children": [
        1
      ],
      "matrix": [
        1.0,
        0.0,
        0.0,
        0.0,
        0.0,
        2.220446049250313e-16,
        -1.0,
        0.0,
        0.0,
        1.0,
        2.220446049250313e-16,
        0.0,
        0.0,
        0.0,
        0.0,
        1.0
      ],
      "name": "Sketchfab_model"
    },
    {
      "children": [
        2
      ],
      "name": "Root"
    },
    {
      "children": [
        3
      ],
      "name": "Charmander"
    },
    {
      "mesh": 0,
      "name": "Charmander_0"
    }
  ],
  "samplers": [
    {
      "magFilter": 9729,
      "minFilter": 9987,
      "wrapS": 10497,
      "wrapT": 10497
    }
  ],
  "scene": 0,
  "scenes": [
    {
      "name": "Sketchfab_Scene",
      "nodes": [
        0
      ]
    }
  ],
  "textures": [
    {
      "sampler": 0,
      "source": 0
    }
  ]
}
